<?xml version="1.0" encoding="UTF-8"?>
<svg id="Layer_1" data-name="Layer 1" xmlns="http://www.w3.org/2000/svg" viewBox="0 0 960 960">
  <defs>
    <style>
      .cls-1 {
        fill: #f7941d;
      }

      .cls-2 {
        fill: #5995f7;
      }
    </style>
  </defs>
  <path class="cls-1" d="M666.13,656.11l-36.23,33.23c-7.76,7.12-18.17,10.81-28.65,9.76-2.53-.25-5.09-.37-7.69-.33-36.91.46-66.88,31.01-66.69,67.91,0,.05,0,.11,0,.16.08,10.61-4.15,20.8-11.98,27.98l-18.81,17.26c-26.46,24.27-67.44,23-92.35-2.86l-95.77-99.42c-2.76-2.87-5.3-5.92-7.59-9.12-8.91-12.45-9.41-29.06-1.4-42.1l.11-.18c4.06-6.58,8.42-13.13,13.13-19.67,7.47-11.47,19.23-25.92,37.6-43.73,8.09-8.01,16.85-15.97,26.39-23.89,31.8-27.1,61.94-47.61,68.19-51.8l1.41-.69,1.26-1.2,5.56-4.22,210.08,114.89c10.44,5.71,12.18,19.99,3.41,28.03Z"/>
  <path class="cls-2" d="M626.29,331.94l-21.12-36.6c-2.91-5.04-8.31-8.04-14.13-8.03h-.09c-37.32,0-67.56-30.25-67.56-67.56,0-9.1,1.8-17.77,5.06-25.69,4.85-11.79,3.73-25.2-2.65-36.24l-7.99-13.84c-7.82-13.55-25.51-17.58-38.43-8.76l-50.04,34.17-25.79,17.61s0,0,0,0l-11.79,8.05-.66.45h0s-14.22,9.71-14.22,9.71c2.89,1.21,5.91,3.55,8.4,6.78,5.08,6.62,6.02,14.43,2.09,17.45-3.93,3.02-11.24.1-16.33-6.52-2.71-3.52-4.22-7.38-4.47-10.68l-27.53,18.8c-31.77,21.69-50.77,57.68-50.77,96.15v328.43c10.65-31.1,45.88-66.83,79.58-95.54,35.16-29.97,68.66-52.27,70.75-53.66.04-.03.06-.04.08-.05.02,0,.03-.02.03-.02l73.39-55.64c-3.09-1.11-6.37-3.55-9.04-7.03-5.08-6.62-6.02-14.43-2.09-17.45,3.93-3.02,11.24-.1,16.32,6.52,2.69,3.51,4.21,7.35,4.47,10.63l36.08-27.36h0s15.03-11.39,15.03-11.39l.67-.51,45.09-34.19c11.77-8.92,15.06-25.2,7.68-37.99ZM425.87,299.22c-3.93,3.02-11.24.1-16.32-6.52-5.08-6.62-6.02-14.43-2.09-17.45,3.93-3.02,11.24-.1,16.33,6.52,5.08,6.62,6.02,14.43,2.09,17.45ZM472.63,375.69c-3.93,3.02-11.24.1-16.32-6.52-5.08-6.62-6.02-14.43-2.09-17.45,3.93-3.02,11.24-.1,16.32,6.52,5.08,6.62,6.02,14.43,2.09,17.45Z"/>
</svg>