<?xml version="1.0" encoding="utf-8"?>
<!-- Generator: Adobe Illustrator 19.0.0, SVG Export Plug-In . SVG Version: 6.00 Build 0)  -->
<svg version="1.1" id="Layer_1" xmlns="http://www.w3.org/2000/svg" xmlns:xlink="http://www.w3.org/1999/xlink" x="0px" y="0px"
	 viewBox="0 0 400 100" style="enable-background:new 0 0 400 100;" xml:space="preserve">
<style type="text/css">
	.st0{fill:#4C4C4C;}
	.st1{fill:#F7941D;}
	.st2{fill:#5995F7;}
</style>
<g id="XMLID_3_">
	<g id="XMLID_1_">
		<g id="XMLID_2_">
			<path id="XMLID_62_" class="st0" d="M228.9,42.6c0,6-2.4,11.9-7.1,16.4c-4.7,4.4-10.7,6.6-16.6,6.6c-12.5,0-24.1-9.6-24.1-23.3
				c0-12.8,10.8-23.3,23.9-23.3c8.6,0,18.5,5.3,21.7,14.1h-9.9c-2.6-3.9-7.3-6.3-12-6.3c-8.7,0-15.4,7.1-15.4,15.6
				c0,7.4,5.7,15.5,15.8,15.5c5.6,0,10.7-3.1,13.3-8.2h-18.8v-7.8h29.3V42.6z"/>
			<path id="XMLID_64_" class="st0" d="M255.7,65.6c-12.3,0-23.4-9.8-23.4-23.2c0-12.4,9.8-23.4,23.4-23.4
				c13.1,0,23.4,10.5,23.4,23.4C279.1,55.1,268.7,65.6,255.7,65.6z M270.8,42.3c0-8.4-6.5-15.6-15.2-15.6c-8.3,0-15.1,7.1-15.1,15.6
				c0,8.3,6.6,15.5,15.1,15.5C264.4,57.8,270.8,50.6,270.8,42.3z"/>
		</g>
		<g id="XMLID_41_">
			<path id="XMLID_4_" class="st0" d="M181.8,81.1v-8h1.9c1.1,0,1.8,0.2,2.2,0.7c0.4,0.4,0.6,0.9,0.6,1.5c0,0.7-0.3,1.2-0.9,1.5
				c0.9,0.3,1.4,1,1.4,2c0,1.2-0.8,2.4-2.9,2.4H181.8z M183.8,76.2c0.9,0,1.2-0.3,1.2-0.9c0-0.6-0.4-0.9-1.1-0.9h-0.6v1.7H183.8z
				 M184,79.7c0.9,0,1.5-0.3,1.5-1.1c0-0.7-0.6-1.1-1.4-1.1h-0.8v2.1H184z"/>
			<path id="XMLID_8_" class="st0" d="M196.8,81.1l-0.9-2.1h-2.9l-0.9,2.1h-1.6l3.3-8h1.2l3.3,8H196.8z M194.5,75.2L194.5,75.2
				l-0.9,2.4h1.8L194.5,75.2z"/>
			<path id="XMLID_12_" class="st0" d="M207.3,81.1l-3.3-5.8h0v5.8h-1.5v-8h1.7l3.3,5.8h0v-5.8h1.5v8H207.3z"/>
			<path id="XMLID_14_" class="st0" d="M221.8,77.2c0,1.1-0.4,2.1-1.3,2.9c-0.8,0.8-1.9,1.2-3,1.2c-2.2,0-4.3-1.7-4.3-4.2
				c0-2.3,1.9-4.2,4.2-4.2c1.5,0,3.3,0.9,3.9,2.5h-1.8c-0.5-0.7-1.3-1.1-2.1-1.1c-1.5,0-2.7,1.3-2.7,2.8c0,1.3,1,2.8,2.8,2.8
				c1,0,1.9-0.6,2.4-1.5h-3.3v-1.4h5.2V77.2z"/>
			<path id="XMLID_16_" class="st0" d="M226,81.1v-8h1.5v6.6h2.4v1.4H226z"/>
			<path id="XMLID_18_" class="st0" d="M239.8,81.1l-0.9-2.1h-2.9l-0.9,2.1h-1.6l3.3-8h1.2l3.3,8H239.8z M237.5,75.2L237.5,75.2
				l-0.9,2.4h1.8L237.5,75.2z"/>
			<path id="XMLID_45_" class="st0" d="M245.4,81.1v-8h1.9c1.4,0,2.7,0.3,3.5,1.2c0.9,1,1,2.3,1,2.7c0,1.2-0.4,2.2-1,2.8
				c-0.8,0.8-1.7,1.2-3.5,1.2H245.4z M247.4,79.7c1.1,0,1.8-0.3,2.3-0.8c0.5-0.6,0.7-1.3,0.7-1.8c0-0.7-0.2-1.3-0.7-1.8
				c-0.5-0.5-1.2-0.8-2.3-0.8h-0.4v5.2H247.4z"/>
			<path id="XMLID_52_" class="st0" d="M256.2,81.1v-8h4.3v1.4h-2.8v2h2.7v1.4h-2.7v1.9h2.8v1.4H256.2z"/>
			<path id="XMLID_58_" class="st0" d="M268,75.3L268,75.3c0-0.5-0.3-0.9-0.9-0.9c-0.5,0-0.8,0.3-0.8,0.8c0,0.5,0.3,0.8,1,1
				c1.7,0.5,2.4,1.3,2.4,2.6c0,1.6-1.1,2.5-2.6,2.5c-1.4,0-2.5-1-2.6-2.4h1.6c0.1,0.7,0.5,1.1,1.1,1.1c0.6,0,1.1-0.4,1.1-1
				c0-0.6-0.4-0.9-1-1.2c-1.3-0.5-2.4-0.8-2.4-2.5c0-1.4,1.1-2.3,2.3-2.3c1.2,0,2.3,0.9,2.4,2.3H268z"/>
			<path id="XMLID_60_" class="st0" d="M278.3,81.1v-3.4h-2.9v3.4H274v-8h1.5v3.2h2.9v-3.2h1.5v8H278.3z"/>
		</g>
	</g>
	<g id="XMLID_10_">
		<path id="XMLID_30_" class="st1" d="M168.1,72.3l-4.6,4.2c-1,0.9-2.3,1.4-3.6,1.2c-0.3,0-0.6,0-1,0c-4.7,0.1-8.5,3.9-8.5,8.6
			c0,0,0,0,0,0c0,1.3-0.5,2.6-1.5,3.5l-2.4,2.2c-3.4,3.1-8.6,2.9-11.7-0.4l-12.1-12.6c-0.4-0.4-0.7-0.8-1-1.2
			c-1.1-1.6-1.2-3.7-0.2-5.3l0,0c0.5-0.8,1.1-1.7,1.7-2.5c0.9-1.5,2.4-3.3,4.8-5.5c1-1,2.1-2,3.3-3c4-3.4,7.9-6,8.6-6.6l0.2-0.1
			l0.2-0.2l0.7-0.5l26.6,14.6C169,69.5,169.3,71.3,168.1,72.3z"/>
		<path id="XMLID_81_" class="st2" d="M163.1,31.2l-2.7-4.6c-0.4-0.6-1.1-1-1.8-1c0,0,0,0,0,0c-4.7,0-8.6-3.8-8.6-8.6
			c0-1.2,0.2-2.3,0.6-3.3c0.6-1.5,0.5-3.2-0.3-4.6l-1-1.8c-1-1.7-3.2-2.2-4.9-1.1l-6.3,4.3l-3.3,2.2c0,0,0,0,0,0l-1.5,1l-0.1,0.1v0
			l-1.8,1.2c0.4,0.2,0.7,0.5,1.1,0.9c0.6,0.8,0.8,1.8,0.3,2.2c-0.5,0.4-1.4,0-2.1-0.8c-0.3-0.4-0.5-0.9-0.6-1.4l-3.5,2.4
			c-4,2.8-6.4,7.3-6.4,12.2v41.7c1.4-3.9,5.8-8.5,10.1-12.1c4.5-3.8,8.7-6.6,9-6.8c0,0,0,0,0,0c0,0,0,0,0,0l9.3-7.1
			c-0.4-0.1-0.8-0.5-1.1-0.9c-0.6-0.8-0.8-1.8-0.3-2.2s1.4,0,2.1,0.8c0.3,0.4,0.5,0.9,0.6,1.3l4.6-3.5c0,0,0,0,0,0l1.9-1.4l0.1-0.1
			l5.7-4.3C163.6,34.9,164,32.8,163.1,31.2z M137.7,27.1c-0.5,0.4-1.4,0-2.1-0.8c-0.6-0.8-0.8-1.8-0.3-2.2c0.5-0.4,1.4,0,2.1,0.8
			C138.1,25.7,138.2,26.7,137.7,27.1z M143.6,36.8c-0.5,0.4-1.4,0-2.1-0.8c-0.6-0.8-0.8-1.8-0.3-2.2c0.5-0.4,1.4,0,2.1,0.8
			C144,35.4,144.1,36.4,143.6,36.8z"/>
	</g>
</g>
</svg>
